<?xml version="1.0" encoding="UTF-8" standalone="no"?>
<svg width="129px" height="123px" viewBox="0 0 129 123" version="1.1" xmlns="http://www.w3.org/2000/svg" xmlns:xlink="http://www.w3.org/1999/xlink">
    <!-- Generator: Sketch 3.8.3 (29802) - http://www.bohemiancoding.com/sketch -->
    <title>Group</title>
    <desc>Created with Sketch.</desc>
    <defs></defs>
    <g id="Page-1" stroke="none" stroke-width="1" fill="none" fill-rule="evenodd">
        <g id="Search-Copy" transform="translate(-142.000000, -229.000000)">
            <g id="Group" transform="translate(142.000000, 229.000000)">
                <path d="M77.9034871,88.7181875 L10.6204259,88.7181875 C4.95202353,88.7181875 0.356927059,84.1264442 0.356927059,78.4623252 L0.356927059,11.2293258 C0.356927059,5.56514104 4.95204,0.973397708 10.6204259,0.973397708 L77.9034871,0.973397708 C83.5718894,0.973397708 88.1670518,5.56514104 88.1670518,11.2293258 L88.1670518,78.4623252 C88.1670353,84.1264442 83.5718894,88.7181875 77.9034871,88.7181875 L77.9034871,88.7181875 Z" id="Shape" fill="#DDE0E3"></path>
                <g transform="translate(31.000000, 26.000000)" id="Shape" fill="#ABB0B6">
                    <polygon points="94.6321435 1.34101688 93.5476376 0.257334375 0.747484706 91.4712446 2.59116941 93.3135575"></polygon>
                    <polygon points="96.3018165 3.00946396 97.3863718 4.09319583 6.10454353 96.8243175 4.26084235 94.9820046"></polygon>
                </g>
                <g transform="translate(7.941176, 7.270833)">
                    <ellipse id="Oval" fill="#534741" opacity="0.1" cx="16.9275435" cy="23.8379208" rx="16.6511882" ry="16.638799"></ellipse>
                    <ellipse id="Oval" fill="#4D4E4F" cx="16.9275435" cy="16.8889327" rx="16.6511882" ry="16.638799"></ellipse>
                    <ellipse id="Oval" fill="#F2F4F7" cx="16.9275435" cy="16.8889327" rx="13.9379718" ry="13.9276013"></ellipse>
                    <path d="M30.8504447,16.8858221 C30.8504447,17.0942669 30.8504447,17.2681985 30.8156588,17.4766433 C30.5374541,10.0412127 24.45256,4.13453083 16.9421694,4.13453083 C9.39679529,4.13453083 3.31191765,10.0412127 3.03389412,17.4766433 C2.99905882,17.2681985 2.99905882,17.0942669 2.99905882,16.8858221 C2.99905882,9.20733479 9.22298118,2.95334917 16.9421529,2.95334917 C24.6263741,2.95333271 30.8504447,9.20733479 30.8504447,16.8858221 L30.8504447,16.8858221 Z" id="Shape" fill="#F2F4F7" opacity="0.7"></path>
                    <ellipse id="Oval" fill="#F2F5F8" opacity="0.1" cx="16.9275435" cy="18.3872994" rx="7.67867059" ry="7.67295729"></ellipse>
                    <path d="M16.9275435,9.23315792 L16.9275435,24.5447569 C15.2017224,24.5447569 13.6439341,23.9978794 12.3810847,23.0302117 C12.0444588,22.8199565 11.7919318,22.5675679 11.49724,22.3151794 C10.7814282,21.5580631 10.1922753,20.7167131 9.81328706,19.7072083 C9.68712235,19.4969038 9.64500706,19.2445646 9.60282588,18.992176 C9.35029882,18.3189808 9.26600235,17.6039485 9.26600235,16.8889327 C9.26600235,16.7205146 9.26600235,16.5523598 9.30811765,16.384205 L9.39241412,15.6689258 C9.51857882,14.701505 9.81327059,13.818071 10.3183741,13.060889 L10.7814118,12.3458567 C12.1285247,10.4529179 14.4018776,9.23315792 16.9275435,9.23315792 L16.9275435,9.23315792 Z" id="Shape" fill="#D4DBE2"></path>
                    <polygon id="Shape" fill="#ABB0B6" points="10.3184565 12.9673328 16.9275435 12.9673328 16.9275435 12.3459554 10.7814941 12.3459554"></polygon>
                    <polygon id="Shape" fill="#ABB0B6" points="9.30813412 16.2904513 16.9275435 16.2904513 16.9275435 15.669074 9.39233176 15.669074"></polygon>
                    <path d="M16.9275435,18.992176 L16.9275435,19.6134676 L9.81328706,19.6134676 C9.68712235,19.4307339 9.64500706,19.2114764 9.60282588,18.992176 L16.9275435,18.992176 L16.9275435,18.992176 Z" id="Shape" fill="#ABB0B6"></path>
                    <path d="M16.9275435,22.3151794 L16.9275435,22.9364709 L12.3810847,22.9364709 C12.0444588,22.7537802 11.7919318,22.5344798 11.49724,22.3151794 L16.9275435,22.3151794 L16.9275435,22.3151794 Z" id="Shape" fill="#ABB0B6"></path>
                    <path d="M16.9275435,9.21597542 C21.1683412,9.21597542 24.6062141,12.6512904 24.6062141,16.8889327 L16.9275435,16.8889327 L16.9275435,9.21597542 L16.9275435,9.21597542 Z" id="Shape" fill="#B5BDC5"></path>
                    <path d="M16.9275435,24.5619394 C21.1683412,24.5619394 24.6062141,21.1266244 24.6062141,16.8889327 L16.9275435,16.8889327 L16.9275435,24.5619394 L16.9275435,24.5619394 Z" id="Shape" fill="#D4DBE2"></path>
                </g>
                <g transform="translate(46.470588, 7.270833)">
                    <ellipse id="Oval" fill="#534741" opacity="0.1" cx="17.1296094" cy="23.8208865" rx="16.6511882" ry="16.638799"></ellipse>
                    <ellipse id="Oval" fill="#4D4E4F" cx="17.1296094" cy="16.8718983" rx="16.6511882" ry="16.638799"></ellipse>
                    <ellipse id="Oval" fill="#F2F4F7" cx="17.1296094" cy="16.8718983" rx="13.9379718" ry="13.9276013"></ellipse>
                    <path d="M31.1491106,16.9008321 C31.1491106,17.1092769 31.1491106,17.2832085 31.1143247,17.4916533 C30.83612,10.0562227 24.7512259,4.14954083 17.2408353,4.14954083 C9.69546118,4.14954083 3.61058353,10.0562227 3.33256,17.4916533 C3.29772471,17.2832085 3.29772471,17.1092769 3.29772471,16.9008321 C3.29772471,9.22234479 9.52164706,2.96835917 17.2408188,2.96835917 C24.92504,2.96835917 31.1491106,9.22234479 31.1491106,16.9008321 L31.1491106,16.9008321 Z" id="Shape" fill="#F2F4F7" opacity="0.7"></path>
                    <path d="M29.0821341,17.5058569 C29.0821341,16.2014681 26.2077694,14.0427108 24.0476188,13.6495871 C23.4913906,12.8233623 22.59348,12.2462508 21.5219859,12.2462508 C21.1477247,12.2462508 20.7989929,12.3375617 20.4668965,12.4591065 C20.3378659,11.9233383 20.1180165,11.4065467 19.6996141,10.9884721 C18.4898988,9.77965687 16.5284988,9.77965687 15.3187835,10.9884721 C14.7849718,11.5218867 14.5276188,12.206471 14.4648,12.9029712 C13.9481835,12.5174348 13.3393812,12.2462508 12.6451294,12.2462508 C10.9342306,12.2462508 9.54739059,13.6320096 9.54739059,15.3416354 C9.54739059,16.5053877 10.2163106,17.481301 11.1665482,18.0099921 C10.2827035,18.5551085 9.66179529,19.4872592 9.66179529,20.6012908 C9.66179529,22.3109167 11.0488329,23.6968729 12.7597318,23.6968729 C13.4338729,23.6968729 14.0244753,23.4367983 14.5331035,23.0711929 C14.3271224,24.0589562 14.5512541,25.1189387 15.3187835,25.8856502 C16.5284988,27.0944654 18.4898988,27.0944654 19.6996141,25.8856502 C20.4042259,25.1815627 20.6481059,24.2294646 20.5319388,23.312324 C20.9614424,23.5376385 21.4288612,23.6968565 21.9476353,23.6968565 C23.4752165,23.6968565 24.6868918,22.5709748 24.9410659,21.1171115 C26.9235482,20.4036592 29.0821341,18.6354581 29.0821341,17.5058569 L29.0821341,17.5058569 Z M15.6883835,15.6114533 C15.7129576,15.6298373 15.7389482,15.6440573 15.7639341,15.6616348 C15.7273859,15.6789654 15.7004565,15.7098083 15.6647647,15.7285379 C15.6699859,15.6885606 15.6846612,15.6520396 15.6883835,15.6114533 L15.6883835,15.6114533 Z M15.7639176,21.212504 C15.7524047,21.2204862 15.7406941,21.2273165 15.7293294,21.2355621 C15.7322941,21.2220992 15.7348141,21.2084387 15.7375153,21.1947783 C15.7471341,21.1994525 15.7541671,21.2078298 15.7639176,21.212504 L15.7639176,21.212504 Z M18.9049906,20.8744333 C18.9088612,20.9169287 18.9240965,20.9551944 18.9297788,20.9971302 C18.8930824,20.9777917 18.8628259,20.9457967 18.8255365,20.928071 C18.8516588,20.9097365 18.8793953,20.8935085 18.9049906,20.8744333 L18.9049906,20.8744333 Z" id="Shape" fill="#534741" opacity="0.1"></path>
                    <g transform="translate(9.235294, 6.583333)">
                        <path d="M14.1672871,13.2954531 C11.9907482,13.2954531 10.22632,11.5323377 10.22632,9.35736896 C10.22632,7.18244958 11.9907482,5.41933417 14.1672871,5.41933417 C16.3438259,5.41933417 19.84684,7.91956896 19.84684,9.35736896 C19.84684,10.7952183 16.3438259,13.2954531 14.1672871,13.2954531 Z" id="Shape" fill="#B5BDC5"></path>
                        <g transform="translate(8.882353, 3.291667)" fill="#D4DBE2">
                            <ellipse id="Oval" cx="3.40428941" cy="3.90146438" rx="3.09773882" ry="3.09543396"></ellipse>
                            <path d="M5.84733882,4.9313775 C5.42748706,5.92320604 4.47311529,6.57163146 3.40433882,6.57163146 C1.91551294,6.57163146 0.732134118,5.38913312 0.732134118,3.90136562 C0.732134118,2.79526687 1.38104235,1.87978854 2.37356,1.45998583 C2.22096,1.76522208 2.14455294,2.10865812 2.14455294,2.48998125 C2.14455294,3.93958187 3.36612706,5.16024708 4.81675765,5.16024708 C5.19843059,5.16026354 5.54208941,5.08391333 5.84733882,4.9313775 L5.84733882,4.9313775 Z" id="Shape" opacity="0.2"></path>
                            <ellipse id="Oval" opacity="0.5" cx="4.34464471" cy="2.67683271" rx="0.940338824" ry="0.939639167"></ellipse>
                        </g>
                        <g transform="translate(3.294118, 0.000000)" fill="#D4DBE2">
                            <ellipse id="Oval" transform="translate(4.988921, 5.028437) rotate(-45.000000) translate(-4.988921, -5.028437) " cx="4.98892132" cy="5.02843698" rx="3.0977694" ry="3.09546451"></ellipse>
                            <path d="M7.43600471,4.03095854 C7.84098353,5.02895896 7.62495529,6.16178604 6.86921882,6.91694375 C5.81648471,7.96889458 4.14294118,7.96889458 3.09015765,6.91694375 C2.30739294,6.13476146 2.11844235,5.02895896 2.52322353,4.03081042 C2.63128706,4.35448 2.82028706,4.65130604 3.09015765,4.92097583 C4.11589647,5.94595146 5.84348,5.94595146 6.86921882,4.92097583 C7.13908941,4.65130604 7.32808941,4.35446354 7.43600471,4.03095854 L7.43600471,4.03095854 Z" id="Shape" opacity="0.2"></path>
                            <ellipse id="Oval" opacity="0.5" transform="translate(4.787222, 3.498025) rotate(-45.000000) translate(-4.787222, -3.498025) " cx="4.78722227" cy="3.49802492" rx="0.940359575" ry="0.939659902"></ellipse>
                        </g>
                        <g transform="translate(3.294118, 10.875000)" fill="#D4DBE2">
                            <ellipse id="Oval" transform="translate(4.989027, 4.672932) rotate(-45.000000) translate(-4.989027, -4.672932) " cx="4.98902718" cy="4.6729319" rx="3.0977694" ry="3.09546451"></ellipse>
                            <path d="M7.43600471,5.67123729 C7.84098353,4.67323687 7.62495529,3.54040979 6.86921882,2.78525208 C5.81648471,1.73325187 4.14294118,1.73325187 3.09015765,2.78525208 C2.30739294,3.56743437 2.11844235,4.67323687 2.52322353,5.67138542 C2.63128706,5.34771583 2.82028706,5.05088979 3.09015765,4.78122 C4.11589647,3.75624437 5.84348,3.75624437 6.86921882,4.78122 C7.13908941,5.05087333 7.32808941,5.34771583 7.43600471,5.67123729 L7.43600471,5.67123729 Z" id="Shape" opacity="0.2"></path>
                            <ellipse id="Oval" opacity="0.5" transform="translate(4.787372, 6.203243) rotate(-45.000000) translate(-4.787372, -6.203243) " cx="4.78737196" cy="6.20324324" rx="0.940359575" ry="0.939659902"></ellipse>
                        </g>
                        <g transform="translate(8.882353, 9.229167)" fill="#D4DBE2">
                            <ellipse id="Oval" cx="3.82988941" cy="3.22366917" rx="3.09773882" ry="3.09543396"></ellipse>
                            <path d="M6.27292235,2.19372313 C5.85307059,1.20194396 4.89869882,0.553518542 3.82997176,0.553518542 C2.34109647,0.553518542 1.15771765,1.73601688 1.15771765,3.223735 C1.15771765,4.32988313 1.80662588,5.24536146 2.79919294,5.66511479 C2.64654353,5.35987854 2.57013647,5.01649188 2.57013647,4.63511938 C2.57013647,3.18556813 3.79171059,1.96490292 5.24234118,1.96490292 C5.62401412,1.96488646 5.96767294,2.04123667 6.27292235,2.19372313 L6.27292235,2.19372313 Z" id="Shape" opacity="0.2"></path>
                            <ellipse id="Oval" opacity="0.5" cx="4.77022824" cy="4.44830083" rx="0.940338824" ry="0.939639167"></ellipse>
                        </g>
                        <g transform="translate(0.000000, 3.291667)" fill="#D4DBE2">
                            <ellipse id="Oval" cx="3.40978588" cy="3.90146438" rx="3.09773882" ry="3.09543396"></ellipse>
                            <path d="M0.966785882,4.9313775 C1.38663765,5.92320604 2.34100941,6.57163146 3.40973647,6.57163146 C4.89856235,6.57163146 6.08199059,5.38913312 6.08199059,3.90136562 C6.08199059,2.79526687 5.43308235,1.87978854 4.44051529,1.45998583 C4.59311529,1.76522208 4.66957176,2.10865812 4.66957176,2.48998125 C4.66957176,3.93958187 3.44794824,5.16024708 1.99731765,5.16024708 C1.61569412,5.16026354 1.27200235,5.08391333 0.966785882,4.9313775 L0.966785882,4.9313775 Z" id="Shape" opacity="0.2"></path>
                            <ellipse id="Oval" opacity="0.5" cx="2.46949647" cy="2.67683271" rx="0.940338824" ry="0.939639167"></ellipse>
                        </g>
                        <g transform="translate(0.000000, 9.229167)" fill="#D4DBE2">
                            <ellipse id="Oval" cx="3.52438824" cy="3.22366917" rx="3.09773882" ry="3.09543396"></ellipse>
                            <path d="M1.08133882,2.19372313 C1.50119059,1.20194396 2.45556235,0.553518542 3.52433882,0.553518542 C5.01316471,0.553518542 6.19654353,1.73601688 6.19654353,3.223735 C6.19654353,4.32988313 5.54768471,5.24536146 4.55511765,5.66511479 C4.70771765,5.35987854 4.78412471,5.01649188 4.78412471,4.63511938 C4.78412471,3.18556813 3.56255059,1.96490292 2.11192,1.96490292 C1.73024706,1.96488646 1.38660471,2.04123667 1.08133882,2.19372313 L1.08133882,2.19372313 Z" id="Shape" opacity="0.2"></path>
                            <ellipse id="Oval" opacity="0.5" cx="2.58404941" cy="4.44830083" rx="0.940338824" ry="0.939639167"></ellipse>
                        </g>
                        <g transform="translate(3.941176, 6.583333)" fill="#D4DBE2">
                            <ellipse id="Oval" cx="3.90703765" cy="3.70523167" rx="3.09773882" ry="3.09543396"></ellipse>
                            <path d="M6.35008706,4.73519417 C5.93023529,5.72702271 4.97586353,6.37539875 3.90708706,6.37539875 C2.41826118,6.37539875 1.23488235,5.19290042 1.23488235,3.70518229 C1.23488235,2.59903417 1.88379059,1.68360521 2.87630824,1.2638025 C2.72370824,1.56903875 2.64730118,1.91242542 2.64730118,2.29379792 C2.64730118,3.74334917 3.86887529,4.96406375 5.31950588,4.96406375 C5.70117882,4.96406375 6.04482118,4.88768063 6.35008706,4.73519417 L6.35008706,4.73519417 Z" id="Shape" opacity="0.2"></path>
                            <ellipse id="Oval" opacity="0.5" cx="4.84737647" cy="2.4806" rx="0.940338824" ry="0.939639167"></ellipse>
                        </g>
                    </g>
                </g>
                <g transform="translate(9.588235, 55.000000)">
                    <path d="M24.2297788,17.972319 L20.2190918,13.9644679 L20.2190918,13.9644679 L15.4714776,9.22038625 L15.4714776,9.22038625 L11.4606424,5.21268333 C10.2592776,4.01211375 8.31143294,4.01211375 7.11006824,5.21268333 L1.39979765,10.9186065 C0.198432941,12.1191267 0.198432941,14.0654727 1.39979765,15.2659435 L5.41058353,19.2737946 L10.1581976,24.0178762 L14.1690329,28.0256779 C15.3703976,29.2261487 17.3181929,29.2261487 18.5196071,28.0256779 L24.2297788,22.319656 C25.4312588,21.1191852 25.4312588,19.1727898 24.2297788,17.972319 L24.2297788,17.972319 Z" id="Shape" fill="#534741" opacity="0.1"></path>
                    <g>
                        <path d="M14.169,23.8035558 L1.39986353,11.0439202 C0.198498824,9.84344937 0.198498824,7.89705396 1.39986353,6.69653375 L7.11008471,0.99056125 C8.31144941,-0.209909583 10.2592941,-0.209909583 11.4607082,0.99056125 L24.2298447,13.7501969 C25.4312094,14.9507171 25.4312094,16.8971125 24.2298447,18.0975833 L18.5196235,23.8035558 C17.3182588,25.004076 15.3704141,25.004076 14.169,23.8035558 L14.169,23.8035558 Z" id="Shape" fill="#F2F5F8"></path>
                        <rect id="Rectangle-path" fill="#4D4E4F" transform="translate(12.819442, 12.401774) rotate(-45.000000) translate(-12.819442, -12.401774) " x="5.7053018" y="9.04713845" width="14.2282812" height="6.70927012"></rect>
                    </g>
                </g>
                <g transform="translate(38.235294, 56.645833)">
                    <path d="M21.8785247,18.5418925 C21.6033835,17.2851177 20.97452,16.1068492 19.9919506,15.1446456 L19.0093812,14.1628073 L12.9371529,8.09509708 C11.5418141,6.70084583 9.71425412,5.99396042 7.90636,5.99396042 C6.0788,5.99396042 4.25124,6.70084583 2.87561647,8.09509708 C0.0851529412,10.8638496 0.0851529412,15.3606119 2.87561647,18.1491637 L5.35168941,20.6233944 L8.94784471,24.216874 L9.93041412,25.1987123 C10.8934329,26.1413633 12.0528141,26.789295 13.2908753,27.0642315 C13.8411741,27.2213427 14.3913082,27.2802142 14.9611576,27.2802142 C16.7692165,27.2802142 18.5967765,26.5733287 19.9919506,25.1987123 C21.79996,23.3921469 22.4288071,20.8590612 21.8785247,18.5418925 L21.8785247,18.5418925 Z" id="Shape" fill="#534741" opacity="0.1"></path>
                    <path d="M20.0970494,19.3046375 C18.7018588,20.679254 16.8742988,21.3861394 15.0663059,21.3861394 C14.4964565,21.3861394 13.9462729,21.3272679 13.3959741,21.1701567 C12.1579129,20.8952202 10.9985153,20.2472885 10.0355129,19.3046375 L2.98073176,12.2551054 C0.190268235,9.46655354 0.190268235,4.96980771 2.98073176,2.20103875 C4.35637176,0.8067875 6.18391529,0.0999020833 8.01147529,0.0999020833 C9.81938588,0.0999020833 11.6469953,0.8067875 13.0422682,2.20103875 L20.0970494,9.25057083 C21.0796188,10.2127744 21.7084659,11.3910429 21.9836235,12.6478177 C22.5339059,14.9649865 21.9050588,17.4980721 20.0970494,19.3046375 L20.0970494,19.3046375 Z" id="Shape" fill="#F2F5F8"></path>
                    <g id="Shape">
                        <path d="M20.0970494,19.3046375 C18.7018588,20.679254 16.8742988,21.3861394 15.0663059,21.3861394 C14.4964565,21.3861394 13.9462729,21.3272679 13.3959741,21.1701567 C12.8456753,18.8530373 13.4745388,16.3199023 15.2825482,14.5132381 C16.6777388,13.1190856 18.5052988,12.4317362 20.3132918,12.4317362 C20.8831412,12.4317362 21.4334729,12.4907065 21.9836235,12.6478177 C22.5339059,14.9649865 21.9050588,17.4980721 20.0970494,19.3046375 L20.0970494,19.3046375 Z" fill="#ABB0B6"></path>
                        <path d="M19.11448,8.26874896 C17.7192894,6.8941325 15.8917294,6.18724708 14.0837365,6.18724708 C12.2561271,6.18724708 10.4482165,6.8941325 9.05294353,8.26874896 C6.26248,11.0376002 6.26248,15.5344119 9.05294353,18.3228156 L2.98071529,12.2551054 C0.190251765,9.46655354 0.190251765,4.96980771 2.98071529,2.20103875 C4.35635529,0.8067875 6.18389882,0.0999020833 8.01145882,0.0999020833 C9.81936941,0.0999020833 11.6469788,0.8067875 13.0422518,2.20103875 L19.11448,8.26874896 L19.11448,8.26874896 Z" fill="#ABB0B6"></path>
                        <path d="M15.4986753,4.67531875 C14.1033859,3.28101812 12.2954918,2.57413271 10.4875812,2.57413271 C8.66002118,2.57413271 6.83231294,3.28101812 5.45683765,4.67531875 C2.66620941,7.44402187 2.66620941,11.9408335 5.45683765,14.7293196 L2.98071529,12.255089 C0.190251765,9.46653708 0.190251765,4.96979125 2.98071529,2.20102229 C4.35635529,0.806771042 6.18389882,0.099885625 8.01145882,0.099885625 C9.81936941,0.099885625 11.6469788,0.806771042 13.0422518,2.20102229 L15.4986753,4.67531875 L15.4986753,4.67531875 Z" fill="#F2F5F8"></path>
                        <path d="M20.5785341,9.75134854 C19.1832447,8.35709729 17.3753506,7.65021188 15.56744,7.65021188 C13.7398306,7.65021188 11.9121718,8.35709729 10.5366471,9.75134854 C7.74608471,12.520101 7.74608471,17.0168633 10.5366471,19.8054152 L8.06057412,17.3311352 C5.27011059,14.5426492 5.27011059,10.0458375 8.06057412,7.27706854 C9.43614824,5.88281729 11.2637576,5.17593188 13.0913176,5.17593188 C14.8992282,5.17593188 16.7267718,5.88281729 18.1220612,7.27706854 L20.5785341,9.75134854 L20.5785341,9.75134854 Z" fill="#F2F5F8"></path>
                    </g>
                    <rect id="Rectangle-path" fill="#4D4E4F" transform="translate(11.537836, 10.755967) rotate(-45.000000) translate(-11.537836, -10.755967) " x="4.42369512" y="7.40133153" width="14.2282812" height="6.70927012"></rect>
                </g>
                <g transform="translate(66.235294, 56.645833)" id="Oval" fill="#ABB0B6">
                    <ellipse opacity="0.1" cx="5.36786353" cy="6.41667625" rx="4.59239529" ry="4.58897833"></ellipse>
                    <ellipse cx="5.36786353" cy="4.72614208" rx="4.59239529" ry="4.58897833"></ellipse>
                    <ellipse opacity="0.6" cx="7.31178824" cy="2.21957083" rx="0.755917647" ry="0.755355208"></ellipse>
                    <ellipse opacity="0.3" cx="7.65554588" cy="7.15511229" rx="0.448708235" ry="0.448374375"></ellipse>
                    <ellipse opacity="0.3" cx="2.73825176" cy="6.85038625" rx="0.699472941" ry="0.6989525"></ellipse>
                </g>
            </g>
        </g>
    </g>
</svg>