<?xml version="1.0" encoding="UTF-8" standalone="no"?>
<svg width="111px" height="110px" viewBox="0 0 111 110" version="1.1" xmlns="http://www.w3.org/2000/svg" xmlns:xlink="http://www.w3.org/1999/xlink">
    <!-- Generator: Sketch 3.8.3 (29802) - http://www.bohemiancoding.com/sketch -->
    <title>Group 3</title>
    <desc>Created with Sketch.</desc>
    <defs>
        <polyline id="path-1" points="55.6532446 60 69.9747261 62.5067119 77.7510761 76.9206601 60.5652982 73.9126058 55.6532446 60"></polyline>
        <mask id="mask-2" maskContentUnits="userSpaceOnUse" maskUnits="objectBoundingBox" x="0" y="0" width="22.0978315" height="16.9206601" fill="white">
            <use xlink:href="#path-1"></use>
        </mask>
    </defs>
    <g id="Page-1" stroke="none" stroke-width="1" fill="none" fill-rule="evenodd">
        <g id="Search-Copy" transform="translate(-123.000000, -227.000000)">
            <g id="Group-3" transform="translate(112.000000, 214.000000)">
                <g id="Outtermost" transform="translate(67.439301, 67.864262) rotate(-165.000000) translate(-67.439301, -67.864262) translate(12.439301, 12.864262)">
                    <path d="M55.7131112,0.8 C75.0477258,0.8 92.9104638,11.0517359 102.575065,27.693326 C112.239667,44.3349161 112.239667,64.8383879 102.575065,81.479978 C92.9104638,98.1215681 75.0477258,108.373304 55.7131112,108.373304 C36.3784965,108.373304 18.5157585,98.1215681 8.85115689,81.479978 C-0.813444757,64.8383879 -0.813444757,44.3349161 8.85115689,27.693326 C18.5157585,11.0517359 36.3784965,0.8 55.7131112,0.8" id="Base-plate" fill="#F2F5F8"></path>
                    <path id="Dash-0" stroke="#B5BDC5" stroke-width="2"></path>
                    <path d="M66.6060804,1.90262637 C68.3972244,2.2683756 70.1721345,2.72556214 71.9145766,3.26880733" id="Dash-1" stroke="#B5BDC5" stroke-width="2"></path>
                    <path d="M77.0553222,5.15671881 C78.7328286,5.87208128 80.3778672,6.67888106 81.974204,7.56098216" id="Dash-2" stroke="#B5BDC5" stroke-width="2"></path>
                    <path d="M86.6279316,10.438568 C88.1268647,11.4766504 89.5770961,12.5900341 90.9623918,13.7733405" id="Dash-3" stroke="#B5BDC5" stroke-width="2"></path>
                    <path d="M94.9342941,17.5276488 C96.1951296,18.8454217 97.385618,20.2277387 98.5057595,21.6638423" id="Dash-4" stroke="#B5BDC5" stroke-width="2"></path>
                    <path d="M101.633497,26.1335131 C102.602122,27.67719 103.489577,29.2692749 104.295862,30.8990105" id="Dash-5" stroke="#B5BDC5" stroke-width="2"></path>
                    <path d="M106.460387,35.9065478 C107.09351,37.6115846 107.640053,39.3435148 108.100014,41.1023383" id="Dash-6" stroke="#B5BDC5" stroke-width="2"></path>
                    <path d="M109.203922,46.4433529 C109.479898,48.2398271 109.663883,50.0524372 109.755875,51.8650474" id="Dash-7" stroke="#B5BDC5" stroke-width="2"></path>
                    <path d="M109.755875,57.3082566 C109.663883,59.1208668 109.479898,60.9334769 109.203922,62.7299511" id="Dash-8" stroke="#B5BDC5" stroke-width="2"></path>
                    <path d="M108.100014,68.0709657 C107.640053,69.8297892 107.09351,71.5617194 106.460387,73.2667562" id="Dash-9" stroke="#B5BDC5" stroke-width="2"></path>
                    <path d="M104.295862,78.2742935 C103.489577,79.9040291 102.602122,81.496114 101.633497,83.0397909" id="Dash-10" stroke="#B5BDC5" stroke-width="2"></path>
                    <path d="M98.5057595,87.5094617 C97.385618,88.9455653 96.1951296,90.3278823 94.9342941,91.6456552" id="Dash-11" stroke="#B5BDC5" stroke-width="2"></path>
                    <path d="M90.9623918,95.3999635 C89.5770961,96.5832699 88.1268647,97.6966536 86.6279316,98.734736" id="Dash-12" stroke="#B5BDC5" stroke-width="2"></path>
                    <path d="M81.974204,101.612322 C80.3778672,102.494423 78.7328286,103.301223 77.0553222,104.016585" id="Dash-13" stroke="#B5BDC5" stroke-width="2"></path>
                    <path d="M71.9145766,105.904497 C70.1721345,106.447742 68.3972244,106.904928 66.6060804,107.270678" id="Dash-14" stroke="#B5BDC5" stroke-width="2"></path>
                    <path id="Dash-15" stroke="#B5BDC5" stroke-width="2"></path>
                    <path d="M50.2368643,108.098992 C48.4186638,107.916117 46.6112859,107.636427 44.8201419,107.270678" id="Dash-16" stroke="#B5BDC5" stroke-width="2"></path>
                    <path d="M61.1065406,108.709744 C59.2883401,108.526869 57.4809622,108.247179 55.6898182,107.88143" id="Dash-16" stroke="#B5BDC5" stroke-width="2" transform="translate(58.398179, 108.295587) rotate(-13.000000) translate(-58.398179, -108.295587) "></path>
                    <path d="M39.5116457,105.904497 C37.7692035,105.361251 36.0484066,104.731948 34.3709001,104.016585" id="Dash-17" stroke="#B5BDC5" stroke-width="2"></path>
                    <path d="M29.4520183,101.612322 C27.8556815,100.730221 26.2972239,99.7728184 24.7982908,98.734736" id="Dash-18" stroke="#B5BDC5" stroke-width="2"></path>
                    <path d="M20.4638305,95.3999635 C19.0785349,94.2166572 17.7527637,92.9634282 16.4919282,91.6456552" id="Dash-19" stroke="#B5BDC5" stroke-width="2"></path>
                    <path d="M12.9204629,87.5094617 C11.8003215,86.0733581 10.7613497,84.5834678 9.79272503,83.0397909" id="Dash-20" stroke="#B5BDC5" stroke-width="2"></path>
                    <path d="M7.13035996,78.2742935 C6.3240746,76.644558 5.59895891,74.9717931 4.96583551,73.2667562" id="Dash-21" stroke="#B5BDC5" stroke-width="2"></path>
                    <path d="M3.32620825,68.0709657 C2.8662468,66.3121421 2.49827765,64.5264253 2.22230078,62.7299511" id="Dash-22" stroke="#B5BDC5" stroke-width="2"></path>
                    <path id="Dash-23" stroke="#B5BDC5" stroke-width="2"></path>
                    <path d="M2.22230078,46.4433529 C2.49827765,44.6468787 2.8662468,42.8611619 3.32620825,41.1023383" id="Dash-24" stroke="#B5BDC5" stroke-width="2"></path>
                    <path d="M0.8,57.3410145 C1.07597687,55.5445404 1.44394602,53.7588235 1.90390747,52" id="Dash-24" stroke="#B5BDC5" stroke-width="2" transform="translate(1.351954, 54.670507) rotate(-11.000000) translate(-1.351954, -54.670507) "></path>
                    <path d="M4.96583551,35.9065478 C5.59895891,34.2015109 6.3240746,32.528746 7.13035996,30.8990105" id="Dash-25" stroke="#B5BDC5" stroke-width="2"></path>
                    <path d="M9.79272503,26.1335131 C10.7613497,24.5898362 11.8003215,23.0999459 12.9204629,21.6638423" id="Dash-26" stroke="#B5BDC5" stroke-width="2"></path>
                    <path d="M16.4919282,17.5276488 C17.7527637,16.2098758 19.0785349,14.9566468 20.4638305,13.7733405" id="Dash-27" stroke="#B5BDC5" stroke-width="2"></path>
                    <path d="M24.7982908,10.438568 C26.2972239,9.40048566 27.8556815,8.44308325 29.4520183,7.56098216" id="Dash-28" stroke="#B5BDC5" stroke-width="2"></path>
                    <path d="M34.3709001,5.15671881 C36.0484066,4.44135634 37.7692035,3.81205251 39.5116457,3.26880733" id="Dash-29" stroke="#B5BDC5" stroke-width="2"></path>
                    <path d="M44.8201419,1.90262637 C46.6112859,1.53687713 48.4186638,1.25718654 50.2368643,1.07431193" id="Dash-30" stroke="#B5BDC5" stroke-width="2"></path>
                    <path d="M55.6568083,1.3884983 C57.4479523,1.02274907 59.2553302,0.743058478 61.0735307,0.560183861" id="Dash-30" stroke="#B5BDC5" stroke-width="2" transform="translate(58.365170, 0.974341) rotate(12.000000) translate(-58.365170, -0.974341) "></path>
                </g>
                <ellipse id="Inner" stroke="#B5BDC5" stroke-width="2" fill="#E6EBF1" cx="65.6355227" cy="68.1855242" rx="26.7822781" ry="26.5855242"></ellipse>
                <g id="Outter" transform="translate(25.253245, 28.000000)" fill="#B5BDC5">
                    <path d="M40.5969654,0 C44.9651989,0 49.3090742,0.70307527 53.4540243,2.08094117 L52.9384429,3.61235225 C48.9599403,2.29105562 44.7906319,1.61626499 40.5969654,1.61626499 L40.5969654,0 Z" id="Dash-0"></path>
                    <path d="M59.4623752,4.62655853 C63.331266,6.64688976 66.8469632,9.2814017 69.8754968,12.4169558 L68.7063042,13.5362193 C65.7995615,10.5259257 62.421894,8.00051169 58.7072717,6.06099371 L59.4623752,4.62655853 Z" id="Dash-1"></path>
                    <path d="M74.0082679,17.4516212 C76.4887425,21.0316482 78.3765014,24.9874567 79.5903506,29.1655017 L78.0314272,29.6140152 C76.8662943,25.6016374 75.0556696,21.8074554 72.6726277,18.3728923 L74.0082679,17.4516212 Z" id="Dash-2"></path>
                    <path d="M80.8975729,35.5376264 C81.4253335,39.8570946 81.2467068,44.2250507 80.3738721,48.4879496 L78.782471,48.1646966 C79.6228282,44.0755462 79.7933355,39.8772979 79.2858734,35.7315782 L80.8975729,35.5376264 Z" id="Dash-3"></path>
                    <path d="M78.555128,54.7348138 C77.004324,58.7997203 74.8080281,62.5898617 72.0433748,65.9597742 L70.7848689,64.9374866 C73.4399104,61.7049566 75.5509526,58.0643197 77.0368015,54.1610398 L78.555128,54.7348138 Z" id="Dash-4"></path>
                    <path d="M67.5168131,70.6509833 C64.2446977,73.5360163 60.5300754,75.8755599 56.5109758,77.5807194 L55.8736035,76.0937556 C59.7343749,74.4572873 63.3028481,72.210679 66.4409936,69.4428252 L67.5168131,70.6509833 Z" id="Dash-5"></path>
                    <path d="M50.3118192,79.6374166 C46.0694363,80.6799076 41.6849641,81.0354858 37.3289097,80.6839482 L37.4628797,79.0717239 C41.6443671,79.4070989 45.8502127,79.0676832 49.9220883,78.0696396 L50.3118192,79.6374166 Z" id="Dash-6"></path>
                    <path d="M30.8821116,79.6374166 C26.6397287,78.5949257 22.5922112,76.8816848 18.8978874,74.5583039 L19.7666624,73.19256 C23.3107775,75.4230057 27.1999668,77.071596 31.2718424,78.0696396 L30.8821116,79.6374166 Z" id="Dash-7"></path>
                    <path d="M13.6771176,70.6509833 C10.4050022,67.7659503 7.6241101,64.3758345 5.43999336,60.6099371 L6.84464836,59.8018046 C8.94351148,63.4181975 11.6147918,66.6749714 14.7529372,69.4428252 L13.6771176,70.6509833 Z" id="Dash-8"></path>
                    <path d="M2.63880275,54.7348138 C1.08799867,50.6699074 0.207044523,46.3827645 0.0324775723,42.0350117 L1.65635619,41.9703611 C1.82686344,46.1403248 2.67128032,50.2577598 4.15712926,54.1610398 L2.63880275,54.7348138 Z" id="Dash-9"></path>
                    <path d="M0.296357847,35.5376264 C0.824118397,31.2181582 2.04608706,27.0118286 3.91760716,23.0843047 L5.38721731,23.7792986 C3.58877174,27.5532774 2.41551944,31.5858585 1.90805737,35.7315782 L0.296357847,35.5376264 Z" id="Dash-10"></path>
                    <path d="M7.18566287,17.4516212 C9.66613746,13.8715943 12.7149696,10.7198775 16.2103683,8.10556892 L17.1846955,9.39454024 C13.8313861,11.9037916 10.9043449,14.9383292 8.52130304,18.3728923 L7.18566287,17.4516212 Z" id="Dash-11"></path>
                    <path d="M21.7315556,4.62655853 C25.6004464,2.60622729 29.7738144,1.22028007 34.0852121,0.521245459 L34.3450327,2.11730713 C30.2041423,2.7880571 26.2012815,4.12147572 22.4866591,6.06099371 L21.7315556,4.62655853 Z" id="Dash-12"></path>
                </g>
                <use id="Rectangle-442" stroke="#B5BDC5" mask="url(#mask-2)" stroke-width="4" fill="#FFFFFF" xlink:href="#path-1"></use>
                <ellipse id="Oval-107" stroke="#B5BDC5" stroke-width="2" fill="#F2F5F8" cx="66.154486" cy="68.7371889" rx="2.35448599" ry="2.33718894"></ellipse>
            </g>
        </g>
    </g>
</svg>