<?xml version="1.0" encoding="UTF-8" standalone="no"?>
<svg width="11px" height="13px" viewBox="0 0 11 13" version="1.1" xmlns="http://www.w3.org/2000/svg" xmlns:xlink="http://www.w3.org/1999/xlink">
    <!-- Generator: Sketch 3.8.3 (29802) - http://www.bohemiancoding.com/sketch -->
    <title>Group</title>
    <desc>Created with Sketch.</desc>
    <defs></defs>
    <g id="Page-1" stroke="none" stroke-width="1" fill="none" fill-rule="evenodd" stroke-linecap="round" stroke-linejoin="round">
        <g id="Search" transform="translate(-206.000000, -157.000000)" stroke="#FF6A9C">
            <g id="Group" transform="translate(207.000000, 158.000000)">
                <path d="M1.28925,1.30759574 C2.14886538,0.435787234 3.27525,0 4.40186538,0 C5.52825,0 6.65486538,0.435787234 7.51425,1.30759574 C8.37363462,2.17917021 8.80332692,3.32129787 8.80355769,4.46342553 C8.80378846,5.60625532 8.37409615,6.74908511 7.51425,7.62089362 C4.45101923,10.7278085 4.68340385,10.8537234 4.40186538,10.8537234 C4.10694231,10.8537234 4.29940385,10.6739787 1.28925,7.62089362 C-0.42975,5.87751064 -0.42975,3.05097872 1.28925,1.30759574 L1.28925,1.30759574 Z" id="Stroke-1"></path>
                <path d="M4.40191154,6.42931277 L4.40191154,6.42931277 C3.36275769,6.42931277 2.52045,5.57505745 2.52045,4.52139787 L2.52045,4.52116383 C2.52045,3.46750426 3.36275769,2.61324894 4.40191154,2.61324894 L4.40191154,2.61324894 C5.44106538,2.61324894 6.28314231,3.46750426 6.28314231,4.52116383 L6.28314231,4.52139787 C6.28314231,5.57505745 5.44106538,6.42931277 4.40191154,6.42931277 L4.40191154,6.42931277 Z" id="Stroke-3"></path>
            </g>
        </g>
    </g>
</svg>