<?xml version="1.0" encoding="UTF-8" standalone="no"?>
<svg width="129px" height="123px" viewBox="0 0 129 123" version="1.1" xmlns="http://www.w3.org/2000/svg" xmlns:xlink="http://www.w3.org/1999/xlink">
    <!-- Generator: Sketch 3.8.3 (29802) - http://www.bohemiancoding.com/sketch -->
    <title>Group 2</title>
    <desc>Created with Sketch.</desc>
    <defs></defs>
    <g id="Page-1" stroke="none" stroke-width="1" fill="none" fill-rule="evenodd">
        <g id="Search-Copy" transform="translate(-142.000000, -229.000000)">
            <g id="Group-2" transform="translate(142.000000, 229.000000)">
                <g id="Group">
                    <path d="M77.9034871,88.7181875 L10.6204259,88.7181875 C4.95202353,88.7181875 0.356927059,84.1264442 0.356927059,78.4623252 L0.356927059,11.2293258 C0.356927059,5.56514104 4.95204,0.973397708 10.6204259,0.973397708 L77.9034871,0.973397708 C83.5718894,0.973397708 88.1670518,5.56514104 88.1670518,11.2293258 L88.1670518,78.4623252 C88.1670353,84.1264442 83.5718894,88.7181875 77.9034871,88.7181875 L77.9034871,88.7181875 Z" id="Shape" fill="#DDE0E3"></path>
                    <g transform="translate(31.000000, 26.000000)" id="Shape" fill="#ABB0B6">
                        <polygon points="94.6321435 1.34101688 93.5476376 0.257334375 0.747484706 91.4712446 2.59116941 93.3135575"></polygon>
                        <polygon points="96.3018165 3.00946396 97.3863718 4.09319583 6.10454353 96.8243175 4.26084235 94.9820046"></polygon>
                    </g>
                </g>
                <path d="M30,46.673 C30,65.752 35.653,75.092 64.545,75.092 L64.545,75.092 C93.438,75.092 99.09,65.752 99.09,46.673 L99.09,46.673 C99.09,27.595 83.624,6 64.545,6 L64.545,6 C45.466,6 30,27.595 30,46.673" id="Fill-3"></path>
                <g id="Group-9" transform="translate(30.000000, 5.000000)">
                    <path d="M34.58,5.675 C53.007,5.675 68.062,25.821 69.067,44.386 C69.105,43.401 69.124,42.392 69.124,41.348 C69.124,22.27 53.657,0.675 34.58,0.675 C15.5,0.675 0.034,22.27 0.034,41.348 C0.034,42.392 0.054,43.401 0.091,44.386 C1.097,25.821 16.151,5.675 34.58,5.675" id="Fill-5"></path>
                    <path d="M34.58,66.563 C6.768,66.563 0.492,57.906 0.062,40.243 C0.05,40.612 0.034,40.982 0.034,41.348 C0.034,60.427 5.687,69.767 34.58,69.767 C63.472,69.767 69.124,60.427 69.124,41.348 C69.124,40.982 69.108,40.612 69.097,40.243 C68.667,57.906 62.39,66.563 34.58,66.563" id="Fill-7"></path>
                </g>
                <g id="Group-25" transform="translate(22.000000, 26.000000)">
                    <path d="M49.1377,4.9417 C49.1377,6.2037 48.1147,7.2267 46.8527,7.2267 C45.5907,7.2267 44.5677,6.2037 44.5677,4.9417 C44.5677,3.6797 45.5907,0.0457 46.8527,0.0457 C48.1147,0.0457 49.1377,3.6797 49.1377,4.9417" id="Fill-11" fill="#A2A2A2"></path>
                    <path d="M8.6949,4.9671 C9.3489,4.8191 9.7569,4.1671 9.6079,3.5131 C9.4599,2.8591 8.8119,2.4501 8.1559,2.5991 L2.8079,3.8181 C2.1539,3.9671 1.7449,4.6181 1.8939,5.2731 C2.0229,5.8361 2.5239,6.2181 3.0769,6.2181 C3.1669,6.2181 3.2559,6.2071 3.3489,6.1861 L8.6949,4.9671 Z" id="Fill-13" fill="#ABB0B6"></path>
                    <path d="M34.4639,4.9671 C33.8099,4.8191 33.4009,4.1671 33.5499,3.5131 C33.6979,2.8591 34.3469,2.4501 35.0029,2.5991 L40.3509,3.8181 C41.0029,3.9671 41.4129,4.6181 41.2649,5.2731 C41.1359,5.8361 40.6339,6.2181 40.0809,6.2181 C39.9909,6.2181 39.9009,6.2071 39.8099,6.1861 L34.4639,4.9671 Z" id="Fill-15" fill="#ABB0B6"></path>
                    <path d="M32.9366,12.2708 C33.6416,11.3908 34.9306,11.2528 35.8156,11.9538 C35.8346,11.9688 37.8316,13.5348 39.7506,13.0218 C40.8446,12.7298 41.9716,13.3778 42.2646,14.4738 C42.5576,15.5688 41.9056,16.6958 40.8116,16.9878 C39.4306,17.3558 38.1126,17.2588 36.9716,16.9708 C34.8326,16.4318 33.3236,15.2188 33.2276,15.1418 C32.3546,14.4278 32.2276,13.1468 32.9366,12.2708" id="Fill-17" fill="#757575"></path>
                    <path d="M10.2222,12.2708 C9.5162,11.3908 8.2272,11.2528 7.3422,11.9538 C7.3232,11.9688 5.3262,13.5348 3.4062,13.0218 C2.3132,12.7298 1.1862,13.3778 0.8932,14.4738 C0.6012,15.5688 1.2522,16.6958 2.3472,16.9878 C3.7272,17.3558 5.0452,17.2588 6.1852,16.9708 C8.3252,16.4318 9.8342,15.2188 9.9302,15.1418 C10.8032,14.4278 10.9312,13.1468 10.2222,12.2708" id="Fill-19" fill="#757575"></path>
                    <path d="M35.7412,36.8753 C30.4872,40.1953 27.8172,33.0073 20.5562,34.2853 C13.2952,35.5633 9.0172,40.2023 5.5392,33.6333 C2.4292,27.7593 11.7142,19.8023 21.0742,20.2213 C30.4332,20.6393 43.8272,31.7663 35.7412,36.8753" id="Fill-21" fill="#A2A2A2"></path>
                    <path d="M20.7544,26.3323 C14.8864,26.3323 10.1294,31.0893 10.1294,36.9573 C10.1294,36.9933 10.1344,37.0293 10.1344,37.0653 C12.8344,37.0763 16.1434,35.0633 20.5564,34.2853 C25.5484,33.4063 28.3704,36.5293 31.3524,37.4883 C31.3604,37.3113 31.3804,37.1373 31.3804,36.9573 C31.3804,31.0893 26.6224,26.3323 20.7544,26.3323" id="Fill-23" fill="#A2A2A2"></path>
                </g>
            </g>
        </g>
    </g>
</svg>