<?xml version="1.0" encoding="UTF-8" standalone="no"?>
<svg width="195px" height="194px" viewBox="0 0 195 194" version="1.1" xmlns="http://www.w3.org/2000/svg" xmlns:xlink="http://www.w3.org/1999/xlink">
    <!-- Generator: Sketch 3.8.3 (29802) - http://www.bohemiancoding.com/sketch -->
    <title>Group</title>
    <desc>Created with Sketch.</desc>
    <defs></defs>
    <g id="Page-1" stroke="none" stroke-width="1" fill="none" fill-rule="evenodd">
        <g id="CTA-Copy" transform="translate(-92.000000, -202.000000)">
            <g id="Group" transform="translate(92.000000, 200.000000)">
                <path d="M171.562736,195.379379 L23.3888031,195.379379 C10.9055799,195.379379 0.786041613,185.267225 0.786041613,172.793435 L0.786041613,24.7297513 C0.786041613,12.2558162 10.9056162,2.14366237 23.3888031,2.14366237 L171.562736,2.14366237 C184.045959,2.14366237 194.165642,12.2558162 194.165642,24.7297513 L194.165642,172.793435 C194.165606,185.267225 184.045959,195.379379 171.562736,195.379379 L171.562736,195.379379 Z" id="Shape" fill="#E6EBF1"></path>
                <g transform="translate(17.488434, 16.012172)">
                    <ellipse id="Oval" fill="#534741" opacity="0.1" cx="37.2786352" cy="52.4969942" rx="36.6700325" ry="36.6427483"></ellipse>
                    <ellipse id="Oval" fill="#4D4E4F" cx="37.2786352" cy="37.1936046" rx="36.6700325" ry="36.6427483"></ellipse>
                    <ellipse id="Oval" fill="#F2F4F7" cx="37.2786352" cy="37.1936046" rx="30.6948592" ry="30.6720207"></ellipse>
                    <path d="M67.9403052,37.1867543 C67.9403052,37.6458012 67.9403052,38.0288417 67.8636981,38.4878887 C67.2510226,22.1132325 53.8505816,9.10525891 37.310845,9.10525891 C20.694066,9.10525891 7.29366134,22.1132325 6.6813848,38.4878887 C6.60466887,38.0288417 6.60466887,37.6458012 6.60466887,37.1867543 C6.60466887,20.2768272 20.3112844,6.50400491 37.3108087,6.50400491 C54.2333632,6.50396866 67.9403052,20.2768272 67.9403052,37.1867543 L67.9403052,37.1867543 Z" id="Shape" fill="#F2F4F7" opacity="0.7"></path>
                    <ellipse id="Oval" fill="#534741" opacity="0.1" cx="37.2786352" cy="40.4933784" rx="16.9103307" ry="16.8977486"></ellipse>
                    <path d="M37.2786352,20.3336961 L37.2786352,54.0536219 C33.4779504,54.0536219 30.0473156,52.8492624 27.266209,50.718219 C26.5248756,50.255185 25.9687486,49.6993631 25.3197645,49.1435411 C23.74337,47.476184 22.4459096,45.6233233 21.6112839,43.4001442 C21.333438,42.9370015 21.2406897,42.3812883 21.1477963,41.8254663 C20.5916693,40.3429241 20.4060277,38.7682462 20.4060277,37.1936046 C20.4060277,36.8227063 20.4060277,36.4523879 20.4987759,36.0820694 L20.6844176,34.5068479 C20.9622635,32.3763481 21.6112476,30.4308081 22.7236104,28.763306 L23.7433338,27.1886282 C26.7100095,23.0199091 31.7164946,20.3336961 37.2786352,20.3336961 L37.2786352,20.3336961 Z" id="Shape" fill="#DD884E"></path>
                    <polygon id="Shape" fill="#C17744" points="22.7237918 28.5572722 37.2786352 28.5572722 37.2786352 27.1888456 23.7435151 27.1888456"></polygon>
                    <polygon id="Shape" fill="#C17744" points="20.4988122 35.8756007 37.2786352 35.8756007 37.2786352 34.5071741 20.6842362 34.5071741"></polygon>
                    <path d="M37.2786352,41.8254663 L37.2786352,43.1937039 L21.6112839,43.1937039 C21.333438,42.7912793 21.2406897,42.30842 21.1477963,41.8254663 L37.2786352,41.8254663 L37.2786352,41.8254663 Z" id="Shape" fill="#C17744"></path>
                    <path d="M37.2786352,49.1435411 L37.2786352,50.5117787 L27.266209,50.5117787 C26.5248756,50.1094485 25.9687486,49.6264948 25.3197645,49.1435411 L37.2786352,49.1435411 L37.2786352,49.1435411 Z" id="Shape" fill="#C17744"></path>
                    <path d="M37.2786352,20.295856 C46.6179199,20.295856 54.1889659,27.8612688 54.1889659,37.1936046 L37.2786352,37.1936046 L37.2786352,20.295856 L37.2786352,20.295856 Z" id="Shape" fill="#97C644"></path>
                    <path d="M37.2786352,54.091462 C46.6179199,54.091462 54.1889659,46.5260492 54.1889659,37.1936046 L37.2786352,37.1936046 L37.2786352,54.091462 L37.2786352,54.091462 Z" id="Shape" fill="#F25757"></path>
                </g>
                <g transform="translate(102.339722, 16.012172)">
                    <ellipse id="Oval" fill="#534741" opacity="0.1" cx="37.7236342" cy="52.4594803" rx="36.6700325" ry="36.6427483"></ellipse>
                    <ellipse id="Oval" fill="#4D4E4F" cx="37.7236342" cy="37.1560907" rx="36.6700325" ry="36.6427483"></ellipse>
                    <ellipse id="Oval" fill="#F2F4F7" cx="37.7236342" cy="37.1560907" rx="30.6948592" ry="30.6720207"></ellipse>
                    <path d="M68.5980413,37.21981 C68.5980413,37.6788569 68.5980413,38.0618975 68.5214342,38.5209444 C67.9087587,22.1462882 54.5083177,9.13831464 37.9685811,9.13831464 C21.3518021,9.13831464 7.95139744,22.1462882 7.3391209,38.5209444 C7.26240497,38.0618975 7.26240497,37.6788569 7.26240497,37.21981 C7.26240497,20.3098829 20.9690205,6.53706064 37.9685448,6.53706064 C54.8910993,6.53706064 68.5980413,20.3098829 68.5980413,37.21981 L68.5980413,37.21981 Z" id="Shape" fill="#F2F4F7" opacity="0.7"></path>
                    <path d="M64.0460482,38.5522241 C64.0460482,35.6796377 57.7159866,30.9255205 52.958801,30.0597648 C51.7338489,28.2402136 49.7564279,26.9692715 47.396733,26.9692715 C46.5725173,26.9692715 45.8045238,27.1703605 45.0731653,27.4380322 C44.789008,26.2581384 44.3048453,25.1200354 43.3834199,24.1993318 C40.7193277,21.5372219 36.3998401,21.5372219 33.735748,24.1993318 C32.5601625,25.3740425 31.9934077,26.8816666 31.8550652,28.4155322 C30.717348,27.5664856 29.3766147,26.9692715 27.8477007,26.9692715 C24.0798786,26.9692715 21.0257141,30.0210548 21.0257141,33.7860735 C21.0257141,36.3489437 22.4988413,38.4981461 24.5914995,39.6624545 C22.645055,40.8629357 21.2776615,42.9157618 21.2776615,45.3691349 C21.2776615,49.1341536 24.3322613,52.1863718 28.1000834,52.1863718 C29.5847089,52.1863718 30.8853613,51.6136233 32.0054864,50.8084698 C31.551865,52.9837688 32.0454585,55.3181123 33.735748,57.0066005 C36.3998401,59.6687104 40.7193277,59.6687104 43.3834199,57.0066005 C44.9351491,55.4560257 45.4722332,53.3592703 45.2164046,51.3395 C46.1622775,51.8356984 47.1916493,52.1863356 48.3341182,52.1863356 C51.6982295,52.1863356 54.366638,49.7068658 54.9263923,46.5050994 C59.2923085,44.9339011 64.0460482,41.0398853 64.0460482,38.5522241 L64.0460482,38.5522241 Z M34.5496986,34.3802793 C34.6038168,34.4207653 34.6610545,34.4520812 34.7160796,34.4907912 C34.6355914,34.5289575 34.5762862,34.5968813 34.4976841,34.6381284 C34.5091824,34.5500886 34.541501,34.4696602 34.5496986,34.3802793 L34.5496986,34.3802793 Z M34.7160434,46.7151773 C34.690689,46.7327562 34.6648994,46.747798 34.6398715,46.7659569 C34.6464005,46.7363083 34.6519502,46.7062247 34.6578988,46.676141 C34.6790819,46.6864347 34.6945702,46.7048836 34.7160434,46.7151773 L34.7160434,46.7151773 Z M41.6334624,45.9706622 C41.6419864,46.0642476 41.6755383,46.1485179 41.6880522,46.240871 C41.6072375,46.1982828 41.5406053,46.1278219 41.4584848,46.0887857 C41.5160127,46.0484084 41.5770953,46.0126705 41.6334624,45.9706622 L41.6334624,45.9706622 Z" id="Shape" fill="#534741" opacity="0.1"></path>
                    <g transform="translate(20.338401, 14.498127)">
                        <path d="M43.7076476,20.6072395 C43.7076476,23.7737393 35.9931446,29.2798743 31.1998681,29.2798743 C26.4065916,29.2798743 22.5208845,25.3970583 22.5208845,20.6072395 C22.5208845,15.8175294 26.4065916,11.9347134 31.1998681,11.9347134 C35.9931446,11.9347134 43.7076476,17.4408485 43.7076476,20.6072395 L43.7076476,20.6072395 Z" id="Shape" fill="#A0C167"></path>
                        <g transform="translate(19.561137, 7.249064)" fill="#ED7845">
                            <ellipse id="Oval" cx="7.49708679" cy="8.59198896" rx="6.82198662" ry="6.81691074"></ellipse>
                            <path d="M12.8772855,10.8601122 C11.9526681,13.0443639 9.85090559,14.4723569 7.49719561,14.4723569 C4.21843299,14.4723569 1.6123403,11.8682033 1.6123403,8.59177149 C1.6123403,6.15586862 3.04139664,4.13975904 5.22716584,3.2152497 C4.89110292,3.88745537 4.72283569,4.64378643 4.72283569,5.48355421 C4.72283569,8.67593312 7.41304386,11.3641396 10.607691,11.3641396 C11.4482292,11.3641759 12.2050508,11.1960339 12.8772855,10.8601122 L12.8772855,10.8601122 Z" id="Shape" opacity="0.2"></path>
                            <ellipse id="Oval" opacity="0.5" cx="9.5679816" cy="5.89504731" rx="2.07085853" ry="2.06931772"></ellipse>
                        </g>
                        <g transform="translate(7.254461, 0.000000)" fill="#ED7845">
                            <ellipse id="Oval" transform="translate(10.986838, 11.073861) rotate(-45.000000) translate(-10.986838, -11.073861) " cx="10.986838" cy="11.0738612" rx="6.82205395" ry="6.81697802"></ellipse>
                            <path d="M16.3759205,8.87716713 C17.267784,11.0750107 16.7920364,13.569776 15.1277179,15.2328199 C12.8093371,17.5494757 9.12378057,17.5494757 6.805291,15.2328199 C5.08144962,13.5102612 4.66533372,11.0750107 5.55676193,8.87684092 C5.79474453,9.58964135 6.21096925,10.2433257 6.805291,10.8372052 C9.06422144,13.0944549 12.8687874,13.0944549 15.1277179,10.8372052 C15.7220396,10.2433257 16.1382643,9.5896051 16.3759205,8.87716713 L16.3759205,8.87716713 Z" id="Shape" opacity="0.2"></path>
                            <ellipse id="Oval" opacity="0.5" transform="translate(10.542647, 7.703516) rotate(-45.000000) translate(-10.542647, -7.703516) " cx="10.5426468" cy="7.70351556" rx="2.07090423" ry="2.06936338"></ellipse>
                        </g>
                        <g transform="translate(7.254461, 23.949438)" fill="#ED7845">
                            <ellipse id="Oval" transform="translate(10.987071, 10.290951) rotate(-45.000000) translate(-10.987071, -10.290951) " cx="10.9870711" cy="10.2909511" rx="6.82205395" ry="6.81697802"></ellipse>
                            <path d="M16.3759205,12.4894664 C17.267784,10.2916228 16.7920364,7.79685752 15.1277179,6.13381358 C12.8093371,3.81704907 9.12378057,3.81704907 6.805291,6.13381358 C5.08144962,7.85637233 4.66533372,10.2916228 5.55676193,12.4897926 C5.79474453,11.7769922 6.21096925,11.1233079 6.805291,10.5294283 C9.06422144,8.27217862 12.8687874,8.27217862 15.1277179,10.5294283 C15.7220396,11.1232716 16.1382643,11.7769922 16.3759205,12.4894664 L16.3759205,12.4894664 Z" id="Shape" opacity="0.2"></path>
                            <ellipse id="Oval" opacity="0.5" transform="translate(10.542976, 13.661075) rotate(-45.000000) translate(-10.542976, -13.661075) " cx="10.5429765" cy="13.661075" rx="2.07090423" ry="2.06936338"></ellipse>
                        </g>
                        <g transform="translate(19.561137, 20.324906)" fill="#ED7845">
                            <ellipse id="Oval" cx="8.4343632" cy="7.09931637" rx="6.82198662" ry="6.81691074"></ellipse>
                            <path d="M13.8145256,4.83112059 C12.8899083,2.64697771 10.7881457,1.21898465 8.43454456,1.21898465 C5.15567313,1.21898465 2.54958044,3.82313829 2.54958044,7.09946135 C2.54958044,9.53547295 3.97863677,11.5515825 6.16451479,12.4759831 C5.82834305,11.8037775 5.66007582,11.0475551 5.66007582,10.2076786 C5.66007582,7.01540846 8.35028399,4.32720193 11.5449311,4.32720193 C12.3854693,4.32716568 13.142291,4.49530772 13.8145256,4.83112059 L13.8145256,4.83112059 Z" id="Shape" opacity="0.2"></path>
                            <ellipse id="Oval" opacity="0.5" cx="10.5052217" cy="9.79625801" rx="2.07085853" ry="2.06931772"></ellipse>
                        </g>
                        <g transform="translate(0.000000, 7.249064)" fill="#ED7845">
                            <ellipse id="Oval" cx="7.50919138" cy="8.59198896" rx="6.82198662" ry="6.81691074"></ellipse>
                            <path d="M2.12910149,10.8601122 C3.05371886,13.0443639 5.1554814,14.4723569 7.50908256,14.4723569 C10.7878452,14.4723569 13.3940467,11.8682033 13.3940467,8.59177149 C13.3940467,6.15586862 11.9649904,4.13975904 9.77911233,3.2152497 C10.1151753,3.88745537 10.2835513,4.64378643 10.2835513,5.48355421 C10.2835513,8.67593312 7.59323432,11.3641396 4.39858718,11.3641396 C3.55815783,11.3641759 2.80126361,11.1960339 2.12910149,10.8601122 L2.12910149,10.8601122 Z" id="Shape" opacity="0.2"></path>
                            <ellipse id="Oval" opacity="0.5" cx="5.43844167" cy="5.89504731" rx="2.07085853" ry="2.06931772"></ellipse>
                        </g>
                        <g transform="translate(0.000000, 20.324906)" fill="#ED7845">
                            <ellipse id="Oval" cx="7.76157409" cy="7.09931637" rx="6.82198662" ry="6.81691074"></ellipse>
                            <path d="M2.38137539,4.83112059 C3.30599276,2.64697771 5.40775529,1.21898465 7.76146527,1.21898465 C11.0402279,1.21898465 13.6463206,3.82313829 13.6463206,7.09946135 C13.6463206,9.53547295 12.2173731,11.5515825 10.031495,12.4759831 C10.367558,11.8037775 10.5358252,11.0475551 10.5358252,10.2076786 C10.5358252,7.01540846 7.84561703,4.32720193 4.65096989,4.32720193 C3.81043173,4.32716568 3.05364632,4.49530772 2.38137539,4.83112059 L2.38137539,4.83112059 Z" id="Shape" opacity="0.2"></path>
                            <ellipse id="Oval" opacity="0.5" cx="5.69071556" cy="9.79625801" rx="2.07085853" ry="2.06931772"></ellipse>
                        </g>
                        <g transform="translate(8.679445, 14.498127)" fill="#ED7845">
                            <ellipse id="Oval" cx="8.60426268" cy="8.15983603" rx="6.82198662" ry="6.81691074"></ellipse>
                            <path d="M13.9844614,10.4280681 C13.059844,12.6123197 10.9580815,14.040204 8.6043715,14.040204 C5.32560888,14.040204 2.71951619,11.4360504 2.71951619,8.15972729 C2.71951619,5.72371569 4.14857253,3.70771484 6.33434173,2.78320551 C5.99827881,3.45541118 5.83001158,4.2116335 5.83001158,5.05151002 C5.83001158,8.24378019 8.52021975,10.9320954 11.7148669,10.9320954 C12.555405,10.9320954 13.3121905,10.7638809 13.9844614,10.4280681 L13.9844614,10.4280681 Z" id="Shape" opacity="0.2"></path>
                            <ellipse id="Oval" opacity="0.5" cx="10.6751212" cy="5.46289438" rx="2.07085853" ry="2.06931772"></ellipse>
                        </g>
                    </g>
                </g>
                <g transform="translate(21.115664, 121.123596)">
                    <path d="M53.3599624,39.5794889 L44.527438,30.7532102 L44.527438,30.7532102 L34.0720182,20.3055697 L34.0720182,20.3055697 L25.2391674,11.4796172 C22.5934654,8.83566624 18.3038298,8.83566624 15.6581278,11.4796172 L3.08270044,24.0454704 C0.436998387,26.6893127 0.436998387,30.9756478 3.08270044,33.6193813 L11.9154424,42.44566 L22.3708622,52.8933005 L31.203713,61.7194705 C33.849415,64.363204 38.1389418,64.363204 40.7847526,61.7194705 L53.3599624,49.1533998 C56.0059183,46.5096663 56.0059183,42.2232225 53.3599624,39.5794889 L53.3599624,39.5794889 Z" id="Shape" fill="#534741" opacity="0.1"></path>
                    <g>
                        <path d="M31.2036404,52.421314 L3.08284553,24.3214423 C0.437143477,21.6777087 0.437143477,17.3912649 3.08284553,14.7474226 L15.6581641,2.18146073 C18.3038661,-0.46227279 22.5935017,-0.46227279 25.2393125,2.18146073 L53.3601074,30.2813324 C56.0058095,32.9251747 56.0058095,37.2116185 53.3601074,39.8553521 L40.7847889,52.421314 C38.1390868,55.0651562 33.8494513,55.0651562 31.2036404,52.421314 L31.2036404,52.421314 Z" id="Shape" fill="#EDE064"></path>
                        <rect id="Rectangle-path" fill="#4D4E4F" transform="translate(28.231581, 27.311771) rotate(-45.000000) translate(-28.231581, -27.311771) " x="12.5644849" y="19.9240352" width="31.3341924" height="14.7754713"></rect>
                    </g>
                </g>
                <g transform="translate(84.203569, 124.748127)">
                    <path d="M48.1819196,40.8338307 C47.5759907,38.0661019 46.1910778,35.4712633 44.027217,33.3522533 L41.8633563,31.1900026 L28.4908087,17.8274048 C25.4179277,14.7569189 21.3931888,13.2001825 17.4117591,13.2001825 C13.3870202,13.2001825 9.36228135,14.7569189 6.33281829,17.8274048 C0.187527826,23.9248822 0.187527826,33.8278644 6.33281829,39.9689449 L11.785743,45.4178123 L19.7053659,53.3315426 L21.8692266,55.4937934 C23.9900321,57.569744 26.543276,58.9966497 29.2697928,59.6021277 C30.4816868,59.9481255 31.6932181,60.077775 32.9481674,60.077775 C36.9299599,60.077775 40.9546987,58.5210386 44.027217,55.4937934 C48.0089007,51.5152897 49.3937773,45.936809 48.1819196,40.8338307 L48.1819196,40.8338307 Z" id="Shape" fill="#534741" opacity="0.1"></path>
                    <path d="M44.2586706,42.5135837 C41.1861161,45.5408289 37.1613772,47.0975654 33.1797298,47.0975654 C31.9247805,47.0975654 30.7131404,46.9679159 29.5012464,46.6219181 C26.7747296,46.01644 24.2214494,44.5895343 22.1006802,42.5135837 L6.56430816,26.9887715 C0.419017687,20.8476909 0.419017687,10.9447451 6.56430816,4.8472314 C9.59380748,1.77674551 13.6185101,0.220009082 17.643249,0.220009082 C21.624715,0.220009082 25.6495627,1.77674551 28.7222986,4.8472314 L44.2586706,20.3720436 C46.4225313,22.4910537 47.807408,25.0858923 48.4133732,27.853621 C49.6252309,32.9565994 48.2403543,38.5350801 44.2586706,42.5135837 L44.2586706,42.5135837 Z" id="Shape" fill="#EA8571"></path>
                    <g id="Shape">
                        <path d="M44.2586706,42.5135837 C41.1861161,45.5408289 37.1613772,47.0975654 33.1797298,47.0975654 C31.9247805,47.0975654 30.7131404,46.9679159 29.5012464,46.6219181 C28.2893523,41.5190484 29.6742653,35.940459 33.6559489,31.9617379 C36.7285035,28.8914695 40.7532424,27.3777562 44.7348897,27.3777562 C45.989839,27.3777562 47.2018056,27.5076232 48.4133732,27.853621 C49.6252309,32.9565994 48.2403543,38.5350801 44.2586706,42.5135837 L44.2586706,42.5135837 Z" fill="#E5693E"></path>
                        <path d="M42.0948099,18.2098292 C39.0222553,15.1825839 34.9975165,13.6258475 31.0158691,13.6258475 C26.9910214,13.6258475 23.0095554,15.1825839 19.9368195,18.2098292 C13.791529,24.3075241 13.791529,34.2106149 19.9368195,40.3513692 L6.56427188,26.9887715 C0.418981414,20.8476909 0.418981414,10.9447451 6.56427188,4.8472314 C9.59377121,1.77674551 13.6184738,0.220009082 17.6432127,0.220009082 C21.6246787,0.220009082 25.6495264,1.77674551 28.7222623,4.8472314 L42.0948099,18.2098292 L42.0948099,18.2098292 Z" fill="#EA8571"></path>
                        <path d="M34.1319141,10.2962076 C31.0591419,7.22561295 27.0777122,5.66887653 23.0962462,5.66887653 C19.0715073,5.66887653 15.046442,7.22561295 12.0173054,10.2962076 C5.87165219,16.3935763 5.87165219,26.2966671 12.0173054,32.4376027 L6.56427188,26.9887352 C0.418981414,20.8476547 0.418981414,10.9447088 6.56427188,4.84719516 C9.59377121,1.77670926 13.6184738,0.219972837 17.6432127,0.219972837 C21.6246787,0.219972837 25.6495264,1.77670926 28.7222623,4.84719516 L34.1319141,10.2962076 L34.1319141,10.2962076 Z" fill="#E5693E"></path>
                        <path d="M45.319019,21.4748799 C42.2462468,18.404394 38.264817,16.8476576 34.283351,16.8476576 C30.2585033,16.8476576 26.2335468,18.404394 23.2043014,21.4748799 C17.0587933,27.5723574 17.0587933,37.4753395 23.2043014,43.61642 L17.7513767,38.1674438 C11.6060862,32.0265083 11.6060862,22.1234174 17.7513767,16.0259038 C20.7807309,12.9554179 24.8055786,11.3986814 28.8303175,11.3986814 C32.8117835,11.3986814 36.8364861,12.9554179 39.9092583,16.0259038 L45.319019,21.4748799 L45.319019,21.4748799 Z" fill="#E5693E"></path>
                    </g>
                    <rect id="Rectangle-path" fill="#4D4E4F" transform="translate(25.409166, 23.687297) rotate(-45.000000) translate(-25.409166, -23.687297) " x="9.74207014" y="16.2995616" width="31.3341924" height="14.7754713"></rect>
                </g>
                <g transform="translate(145.866490, 124.748127)" id="Oval">
                    <ellipse fill="#534741" opacity="0.1" cx="11.8213624" cy="14.1311072" rx="10.1135896" ry="10.1060646"></ellipse>
                    <ellipse fill="#8EB748" cx="11.8213624" cy="10.4081331" rx="10.1135896" ry="10.1060646"></ellipse>
                    <ellipse fill="#8EB748" opacity="0.6" cx="16.1023651" cy="4.88804363" rx="1.66471751" ry="1.66347889"></ellipse>
                    <ellipse fill="#8EB748" opacity="0.3" cx="16.8594044" cy="15.7573259" rx="0.988166451" ry="0.987431208"></ellipse>
                    <ellipse fill="#8EB748" opacity="0.3" cx="6.03030726" cy="15.0862439" rx="1.54041232" ry="1.53926618"></ellipse>
                </g>
            </g>
        </g>
    </g>
</svg>